<svg width="19" height="18" viewBox="0 0 19 18" fill="none" xmlns="http://www.w3.org/2000/svg">
<g id="Components / avatar">
<rect width="18" height="18" transform="translate(0.5)" fill="white" fill-opacity="0.01"/>
<path id="Vector" fill-rule="evenodd" clip-rule="evenodd" d="M1.55249 8.99965C1.55249 4.61042 5.11066 1.05225 9.49989 1.05225C13.8891 1.05225 17.4473 4.61042 17.4473 8.99965C17.4473 13.3888 13.8891 16.947 9.49989 16.947C5.11066 16.947 1.55249 13.3888 1.55249 8.99965ZM9.49989 2.19224C5.74027 2.19224 2.69249 5.24002 2.69249 8.99965C2.69249 10.7661 3.36536 12.3755 4.4688 13.5854C5.52896 11.9292 7.38589 10.8298 9.50035 10.8298C11.6145 10.8298 13.4712 11.929 14.5316 13.5848C15.6346 12.375 16.3073 10.7659 16.3073 8.99965C16.3073 5.24002 13.2594 2.19224 9.49989 2.19224ZM13.6782 14.3742C12.8408 12.9352 11.2829 11.9698 9.50035 11.9698C7.71757 11.9698 6.15956 12.9354 5.32221 14.3747C6.4755 15.2724 7.92525 15.807 9.49989 15.807C11.0748 15.807 12.5248 15.2722 13.6782 14.3742ZM6.68006 7.80564C6.68006 6.24819 7.94262 4.98564 9.50006 4.98564C11.0575 4.98564 12.3201 6.24819 12.3201 7.80564C12.3201 9.36308 11.0575 10.6256 9.50006 10.6256C7.94262 10.6256 6.68006 9.36308 6.68006 7.80564ZM9.50006 6.12564C8.57222 6.12564 7.82006 6.8778 7.82006 7.80564C7.82006 8.73348 8.57222 9.48564 9.50006 9.48564C10.4279 9.48564 11.1801 8.73348 11.1801 7.80564C11.1801 6.8778 10.4279 6.12564 9.50006 6.12564Z" fill="#60646C"/>
</g>
</svg>
