<svg width="16" height="16" viewBox="0 0 16 16" fill="none" xmlns="http://www.w3.org/2000/svg">
<g id="Components / avatar">
<rect width="16" height="16" fill="white" fill-opacity="0.01"/>
<path id="Vector" fill-rule="evenodd" clip-rule="evenodd" d="M0.935547 7.9999C0.935547 4.09837 4.09837 0.935547 7.99991 0.935547C11.9014 0.935547 15.0643 4.09837 15.0643 7.9999C15.0643 11.9014 11.9014 15.0642 7.99991 15.0642C4.09837 15.0642 0.935547 11.9014 0.935547 7.9999ZM7.99991 1.94887C4.65802 1.94887 1.94888 4.65802 1.94888 7.9999C1.94888 9.57012 2.54699 11.0007 3.52782 12.0761C4.47019 10.604 6.12079 9.62669 8.00031 9.62669C9.8796 9.62669 11.53 10.6037 12.4725 12.0756C13.453 11.0002 14.0509 9.56987 14.0509 7.9999C14.0509 4.65802 11.3417 1.94887 7.99991 1.94887ZM11.714 12.7773C10.9696 11.4982 9.58481 10.64 8.00031 10.64C6.41562 10.64 5.03072 11.4984 4.28641 12.7777C5.31155 13.5757 6.60023 14.0509 7.99991 14.0509C9.39982 14.0509 10.6887 13.5755 11.714 12.7773ZM5.49339 6.93856C5.49339 5.55416 6.61566 4.43189 8.00005 4.43189C9.38445 4.43189 10.5067 5.55416 10.5067 6.93856C10.5067 8.32295 9.38445 9.44523 8.00005 9.44523C6.61566 9.44523 5.49339 8.32295 5.49339 6.93856ZM8.00005 5.44523C7.17531 5.44523 6.50672 6.11381 6.50672 6.93856C6.50672 7.76331 7.17531 8.43189 8.00005 8.43189C8.8248 8.43189 9.49339 7.76331 9.49339 6.93856C9.49339 6.11381 8.8248 5.44523 8.00005 5.44523Z" fill="#730086" fill-opacity="0.756863"/>
</g>
</svg>
