<svg width="16" height="16" viewBox="0 0 16 16" fill="none" xmlns="http://www.w3.org/2000/svg">
<g id="Components / calendar">
<rect width="16" height="16" fill="white" fill-opacity="0.01"/>
<path id="Vector" fill-rule="evenodd" clip-rule="evenodd" d="M4.79974 1.06665C5.09429 1.06665 5.33307 1.30543 5.33307 1.59998V2.13332H10.6664V1.59998C10.6664 1.30543 10.9052 1.06665 11.1997 1.06665C11.4942 1.06665 11.7331 1.30543 11.7331 1.59998V2.13332H13.3331C14.2167 2.13332 14.9331 2.84966 14.9331 3.73332V13.3333C14.9331 14.2169 14.2167 14.9333 13.3331 14.9333H2.66641C1.78275 14.9333 1.06641 14.2169 1.06641 13.3333V3.73332C1.06641 2.84966 1.78275 2.13332 2.66641 2.13332H4.26641V1.59998C4.26641 1.30543 4.50519 1.06665 4.79974 1.06665ZM10.6664 3.19998V3.73332C10.6664 4.02787 10.9052 4.26665 11.1997 4.26665C11.4942 4.26665 11.7331 4.02787 11.7331 3.73332V3.19998H13.3331C13.6276 3.19998 13.8664 3.43877 13.8664 3.73332V5.33332H2.13307V3.73332C2.13307 3.43877 2.37186 3.19998 2.66641 3.19998H4.26641V3.73332C4.26641 4.02787 4.50519 4.26665 4.79974 4.26665C5.09429 4.26665 5.33307 4.02787 5.33307 3.73332V3.19998H10.6664ZM2.13307 6.39998V13.3333C2.13307 13.6278 2.37186 13.8667 2.66641 13.8667H13.3331C13.6276 13.8667 13.8664 13.6278 13.8664 13.3333V6.39998H2.13307ZM7.46641 7.99998C7.46641 7.70543 7.70519 7.46665 7.99974 7.46665C8.29429 7.46665 8.53307 7.70543 8.53307 7.99998C8.53307 8.29453 8.29429 8.53332 7.99974 8.53332C7.70519 8.53332 7.46641 8.29453 7.46641 7.99998ZM10.1331 7.46665C9.83852 7.46665 9.59974 7.70543 9.59974 7.99998C9.59974 8.29453 9.83852 8.53332 10.1331 8.53332C10.4276 8.53332 10.6664 8.29453 10.6664 7.99998C10.6664 7.70543 10.4276 7.46665 10.1331 7.46665ZM11.7331 7.99998C11.7331 7.70543 11.9719 7.46665 12.2664 7.46665C12.5609 7.46665 12.7997 7.70543 12.7997 7.99998C12.7997 8.29453 12.5609 8.53332 12.2664 8.53332C11.9719 8.53332 11.7331 8.29453 11.7331 7.99998ZM12.2664 9.59998C11.9719 9.59998 11.7331 9.83877 11.7331 10.1333C11.7331 10.4279 11.9719 10.6667 12.2664 10.6667C12.5609 10.6667 12.7997 10.4279 12.7997 10.1333C12.7997 9.83877 12.5609 9.59998 12.2664 9.59998ZM9.59974 10.1333C9.59974 9.83877 9.83852 9.59998 10.1331 9.59998C10.4276 9.59998 10.6664 9.83877 10.6664 10.1333C10.6664 10.4279 10.4276 10.6667 10.1331 10.6667C9.83852 10.6667 9.59974 10.4279 9.59974 10.1333ZM7.99974 9.59998C7.70519 9.59998 7.46641 9.83877 7.46641 10.1333C7.46641 10.4279 7.70519 10.6667 7.99974 10.6667C8.29429 10.6667 8.53307 10.4279 8.53307 10.1333C8.53307 9.83877 8.29429 9.59998 7.99974 9.59998ZM5.33307 10.1333C5.33307 9.83877 5.57186 9.59998 5.86641 9.59998C6.16096 9.59998 6.39974 9.83877 6.39974 10.1333C6.39974 10.4279 6.16096 10.6667 5.86641 10.6667C5.57186 10.6667 5.33307 10.4279 5.33307 10.1333ZM3.73307 9.59998C3.43852 9.59998 3.19974 9.83877 3.19974 10.1333C3.19974 10.4279 3.43852 10.6667 3.73307 10.6667C4.02762 10.6667 4.26641 10.4279 4.26641 10.1333C4.26641 9.83877 4.02762 9.59998 3.73307 9.59998ZM3.19974 12.2667C3.19974 11.9721 3.43852 11.7333 3.73307 11.7333C4.02762 11.7333 4.26641 11.9721 4.26641 12.2667C4.26641 12.5612 4.02762 12.8 3.73307 12.8C3.43852 12.8 3.19974 12.5612 3.19974 12.2667ZM5.86641 11.7333C5.57186 11.7333 5.33307 11.9721 5.33307 12.2667C5.33307 12.5612 5.57186 12.8 5.86641 12.8C6.16096 12.8 6.39974 12.5612 6.39974 12.2667C6.39974 11.9721 6.16096 11.7333 5.86641 11.7333ZM7.46641 12.2667C7.46641 11.9721 7.70519 11.7333 7.99974 11.7333C8.29429 11.7333 8.53307 11.9721 8.53307 12.2667C8.53307 12.5612 8.29429 12.8 7.99974 12.8C7.70519 12.8 7.46641 12.5612 7.46641 12.2667ZM10.1331 11.7333C9.83852 11.7333 9.59974 11.9721 9.59974 12.2667C9.59974 12.5612 9.83852 12.8 10.1331 12.8C10.4276 12.8 10.6664 12.5612 10.6664 12.2667C10.6664 11.9721 10.4276 11.7333 10.1331 11.7333Z" fill="#1F0099" fill-opacity="0.686275"/>
</g>
</svg>
