<svg width="16" height="16" viewBox="0 0 16 16" fill="none" xmlns="http://www.w3.org/2000/svg">
<g id="Abstract / check-circled">
<rect width="16" height="16" fill="white" fill-opacity="0.01"/>
<path id="Vector" fill-rule="evenodd" clip-rule="evenodd" d="M7.9999 0.935547C4.09837 0.935547 0.935547 4.09837 0.935547 7.9999C0.935547 11.9014 4.09837 15.0642 7.9999 15.0642C11.9014 15.0642 15.0642 11.9014 15.0642 7.9999C15.0642 4.09837 11.9014 0.935547 7.9999 0.935547ZM1.94889 7.9999C1.94889 4.65802 4.65802 1.94887 7.9999 1.94887C11.3418 1.94887 14.0509 4.65802 14.0509 7.9999C14.0509 11.3418 11.3418 14.0509 7.9999 14.0509C4.65802 14.0509 1.94889 11.3418 1.94889 7.9999ZM10.8362 5.90695C11.0057 5.66607 10.9478 5.33338 10.707 5.16386C10.4661 4.99435 10.1334 5.05221 9.96386 5.2931L6.95442 9.56968L5.71393 8.30623C5.50756 8.09605 5.16989 8.09295 4.95971 8.29932C4.74953 8.50567 4.74643 8.84335 4.9528 9.05352L6.64169 10.7737C6.75258 10.8866 6.90791 10.9445 7.06567 10.9316C7.22343 10.9188 7.36732 10.8364 7.45841 10.7069L10.8362 5.90695Z" fill="#0E3C49"/>
</g>
</svg>
