<svg width="16" height="16" viewBox="0 0 16 16" fill="none" xmlns="http://www.w3.org/2000/svg">
<g id="Objects / clock">
<rect width="16" height="16" fill="white" fill-opacity="0.01"/>
<path id="Vector" fill-rule="evenodd" clip-rule="evenodd" d="M7.9999 0.935547C4.09838 0.935547 0.935547 4.09837 0.935547 7.99989C0.935547 11.9014 4.09837 15.0643 7.9999 15.0643C11.9015 15.0643 15.0642 11.9014 15.0642 7.99989C15.0642 4.09837 11.9014 0.935547 7.9999 0.935547ZM1.94888 7.99989C1.94888 4.65802 4.65802 1.94888 7.9999 1.94888C11.3418 1.94888 14.0509 4.65802 14.0509 7.99989C14.0509 11.3417 11.3418 14.0509 7.9999 14.0509C4.65802 14.0509 1.94888 11.3417 1.94888 7.99989ZM8.53314 4.80008C8.53314 4.50553 8.29435 4.26674 7.9998 4.26674C7.70526 4.26674 7.46647 4.50553 7.46647 4.80008V8.00008C7.46647 8.14153 7.52266 8.27719 7.62268 8.37721L9.75602 10.5105C9.96429 10.7188 10.302 10.7188 10.5103 10.5105C10.7185 10.3023 10.7185 9.96457 10.5103 9.75629L8.53314 7.77917V4.80008Z" fill="#1C2024"/>
</g>
</svg>
