<svg width="24" height="24" viewBox="0 0 24 24" fill="none" xmlns="http://www.w3.org/2000/svg">
<path d="M0.5 12C0.5 5.64873 5.64873 0.5 12 0.5C18.3513 0.5 23.5 5.64873 23.5 12C23.5 18.3513 18.3513 23.5 12 23.5C5.64873 23.5 0.5 18.3513 0.5 12Z" stroke="#000714" stroke-opacity="0.623529"/>
<rect width="16" height="16" transform="translate(4 4)" fill="white" fill-opacity="0.01"/>
<path fill-rule="evenodd" clip-rule="evenodd" d="M7.34444 10.5685C7.5459 10.3536 7.88342 10.3427 8.0983 10.5441L12.0002 14.2022L15.9021 10.5441C16.117 10.3427 16.4545 10.3536 16.656 10.5685C16.8574 10.7834 16.8465 11.1209 16.6317 11.3223L12.365 15.3224C12.1598 15.5147 11.8406 15.5147 11.6354 15.3224L7.36876 11.3223C7.15387 11.1209 7.14299 10.7834 7.34444 10.5685Z" fill="#1C2024"/>
</svg>
