<svg width="16" height="16" viewBox="0 0 16 16" fill="none" xmlns="http://www.w3.org/2000/svg">
<g id="Abstract / enter">
<rect width="16" height="16" fill="white" fill-opacity="0.01"/>
<path id="Vector" fill-rule="evenodd" clip-rule="evenodd" d="M4.8 1.06665C4.50545 1.06665 4.26667 1.30543 4.26667 1.59998C4.26667 1.89453 4.50545 2.13332 4.8 2.13332H12.8V13.8667H4.8C4.50545 13.8667 4.26667 14.1055 4.26667 14.4C4.26667 14.6945 4.50545 14.9333 4.8 14.9333H12.8C13.3891 14.9333 13.8667 14.4558 13.8667 13.8667V2.13332C13.8667 1.54422 13.3891 1.06665 12.8 1.06665H4.8ZM7.04379 5.22286C6.83551 5.01458 6.49782 5.01458 6.28955 5.22286C6.08126 5.43114 6.08126 5.76883 6.28955 5.9771L7.77908 7.46665H0.533333C0.238782 7.46665 0 7.70543 0 7.99998C0 8.29453 0.238782 8.53332 0.533333 8.53332H7.77908L6.28955 10.0229C6.08126 10.2311 6.08126 10.5688 6.28955 10.7772C6.49782 10.9854 6.83551 10.9854 7.04379 10.7772L9.44379 8.3771C9.65207 8.16883 9.65207 7.83114 9.44379 7.62286L7.04379 5.22286Z" fill="#000830" fill-opacity="0.27451"/>
</g>
</svg>
