<svg width="16" height="16" viewBox="0 0 16 16" fill="none" xmlns="http://www.w3.org/2000/svg">
<g id="Objects / file-text">
<rect width="16" height="16" fill="white" fill-opacity="0.01"/>
<path id="Vector" fill-rule="evenodd" clip-rule="evenodd" d="M3.20046 2.66665C3.20046 2.3721 3.43924 2.13332 3.73379 2.13332H9.69197C9.83341 2.13332 9.96906 2.18951 10.0691 2.28953L12.6443 4.86469C12.7442 4.96471 12.8005 5.10037 12.8005 5.24181V13.3333C12.8005 13.6278 12.5616 13.8667 12.2671 13.8667H3.73379C3.43924 13.8667 3.20046 13.6278 3.20046 13.3333V2.66665ZM3.73379 1.06665C2.85013 1.06665 2.13379 1.78299 2.13379 2.66665V13.3333C2.13379 14.2169 2.85013 14.9333 3.73379 14.9333H12.2671C13.1507 14.9333 13.8671 14.2169 13.8671 13.3333V5.24181C13.8671 4.81747 13.6986 4.4105 13.3985 4.11044L10.8233 1.53528C10.5233 1.23523 10.1163 1.06665 9.69197 1.06665H3.73379ZM4.80046 4.26665C4.50591 4.26665 4.26712 4.50543 4.26712 4.79998C4.26712 5.09453 4.50591 5.33332 4.80046 5.33332H8.00046C8.29501 5.33332 8.53379 5.09453 8.53379 4.79998C8.53379 4.50543 8.29501 4.26665 8.00046 4.26665H4.80046ZM4.80046 7.46665C4.50591 7.46665 4.26712 7.70543 4.26712 7.99998C4.26712 8.29453 4.50591 8.53332 4.80046 8.53332H11.2005C11.495 8.53332 11.7338 8.29453 11.7338 7.99998C11.7338 7.70543 11.495 7.46665 11.2005 7.46665H4.80046ZM4.80046 10.6667C4.50591 10.6667 4.26712 10.9055 4.26712 11.2C4.26712 11.4945 4.50591 11.7333 4.80046 11.7333H11.2005C11.495 11.7333 11.7338 11.4945 11.7338 11.2C11.7338 10.9055 11.495 10.6667 11.2005 10.6667H4.80046Z" fill="#1C2024"/>
</g>
</svg>
