<svg width="16" height="16" viewBox="0 0 16 16" fill="none" xmlns="http://www.w3.org/2000/svg">
<g id="Objects / gear">
<rect width="16" height="16" fill="white" fill-opacity="0.01"/>
<path id="Vector" fill-rule="evenodd" clip-rule="evenodd" d="M7.54039 0.693604C7.11689 0.693604 6.7498 0.986785 6.65616 1.39981L6.40221 2.51998C5.99794 2.63755 5.61229 2.79855 5.2507 2.99749L4.27895 2.38492C3.92069 2.15909 3.45381 2.21134 3.15435 2.5108L2.50785 3.15731C2.20839 3.45676 2.15613 3.92364 2.38197 4.2819L2.99476 5.254C2.79599 5.61548 2.63514 6.00102 2.51768 6.40515L1.39761 6.65908C0.984589 6.75271 0.691406 7.1198 0.691406 7.5433V8.45758C0.691406 8.88109 0.984589 9.24818 1.39761 9.34182L2.51781 9.59578C2.63534 10 2.79629 10.3856 2.99516 10.7472L2.38247 11.7192C2.15663 12.0773 2.2089 12.5442 2.50835 12.8437L3.15486 13.4903C3.45431 13.7897 3.92119 13.8419 4.27946 13.6161L5.25144 13.0034C5.61281 13.2021 5.99822 13.363 6.40221 13.4804L6.65616 14.6007C6.7498 15.0137 7.11689 15.3069 7.54039 15.3069H8.45468C8.87818 15.3069 9.24527 15.0137 9.3389 14.6007L9.59277 13.4809C9.9971 13.3634 10.3828 13.2025 10.7445 13.0036L11.7164 13.6163C12.0746 13.8421 12.5415 13.7899 12.841 13.4905L13.4875 12.844C13.787 12.5444 13.8392 12.0776 13.6134 11.7194L13.0009 10.7477C13.2 10.386 13.361 10.0002 13.4786 9.59571L14.5985 9.34182C15.0115 9.24818 15.3047 8.88109 15.3047 8.45758V7.5433C15.3047 7.1198 15.0115 6.75271 14.5985 6.65908L13.4787 6.40522C13.3612 6.00085 13.2003 5.6151 13.0014 5.25342L13.6138 4.28169C13.8398 3.92343 13.7875 3.45655 13.488 3.15708L12.8415 2.51059C12.542 2.21113 12.0752 2.15886 11.7169 2.38471L10.7452 2.99723C10.3833 2.79818 9.99738 2.63713 9.59277 2.51958L9.3389 1.39981C9.24527 0.986785 8.87818 0.693604 8.45468 0.693604H7.54039ZM5.24661 4.06669C5.80844 3.67297 6.45847 3.39654 7.16117 3.27297L7.54039 1.60027H8.45468L8.83383 3.27272C9.5369 3.39614 10.1873 3.67257 10.7494 4.06641L12.2004 3.1517L12.8469 3.79819L11.9321 5.24926C12.3258 5.81119 12.6022 6.46135 12.7256 7.16415L14.398 7.5433V8.45758L12.7255 8.83675C12.602 9.53966 12.3255 10.1899 11.9317 10.7518L12.8464 12.2029L12.1999 12.8493L10.7487 11.9345C10.1868 12.3281 9.53662 12.6044 8.83383 12.7278L8.45468 14.4002H7.54039L7.16117 12.7275C6.45874 12.604 5.80895 12.3277 5.24729 11.9342L3.79597 12.8491L3.14946 12.2026L4.06432 10.7514C3.67069 10.1895 3.39435 9.53949 3.27085 8.83682L1.59807 8.45758V7.5433L3.27077 7.16409C3.39419 6.46151 3.6704 5.81157 4.06387 5.24978L3.14896 3.79842L3.79547 3.15192L5.24661 4.06669ZM9.62467 8.0001C9.62467 8.89843 8.89643 9.62667 7.9981 9.62667C7.09977 9.62667 6.37152 8.89843 6.37152 8.0001C6.37152 7.10177 7.09977 6.37352 7.9981 6.37352C8.89643 6.37352 9.62467 7.10177 9.62467 8.0001ZM10.5847 8.0001C10.5847 9.42862 9.42662 10.5867 7.9981 10.5867C6.56957 10.5867 5.41152 9.42862 5.41152 8.0001C5.41152 6.57158 6.56957 5.41352 7.9981 5.41352C9.42662 5.41352 10.5847 6.57158 10.5847 8.0001Z" fill="#007C9F"/>
</g>
</svg>
