<svg width="17" height="16" viewBox="0 0 17 16" fill="none" xmlns="http://www.w3.org/2000/svg">
<g id="Objects / link-break-2">
<rect width="16" height="16" transform="translate(0.5)" fill="white" fill-opacity="0.01"/>
<path id="Vector" fill-rule="evenodd" clip-rule="evenodd" d="M5.2999 0C5.59445 0 5.83322 0.238777 5.83322 0.533323V2.66661C5.83322 2.96116 5.59445 3.19994 5.2999 3.19994C5.00536 3.19994 4.76658 2.96116 4.76658 2.66661V0.533323C4.76658 0.238777 5.00536 0 5.2999 0ZM1.18922 0.689568C1.3975 0.481293 1.73518 0.481293 1.94345 0.689568L3.54342 2.28954C3.7517 2.49781 3.7517 2.83549 3.54342 3.04377C3.33515 3.25204 2.99747 3.25204 2.78919 3.04377L1.18922 1.4438C0.980947 1.23552 0.980947 0.897843 1.18922 0.689568ZM0.5 4.7999C0.5 4.50535 0.738776 4.26658 1.03332 4.26658H3.16661C3.46116 4.26658 3.69993 4.50535 3.69993 4.7999C3.69993 5.09445 3.46116 5.33323 3.16661 5.33323H1.03332C0.738776 5.33323 0.5 5.09445 0.5 4.7999ZM13.2998 11.1998C13.2998 10.9052 13.5385 10.6665 13.8331 10.6665H15.9663C16.2608 10.6665 16.4997 10.9052 16.4997 11.1998C16.4997 11.4943 16.2608 11.7331 15.9663 11.7331H13.8331C13.5385 11.7331 13.2998 11.4943 13.2998 11.1998ZM11.6998 12.7998C11.9943 12.7998 12.2331 13.0385 12.2331 13.333V15.4663C12.2331 15.7609 11.9943 15.9997 11.6998 15.9997C11.4053 15.9997 11.1664 15.7609 11.1664 15.4663V13.333C11.1664 13.0385 11.4053 12.7998 11.6998 12.7998ZM13.4556 12.9559C13.6639 12.7477 14.0015 12.7477 14.2099 12.9559L15.8099 14.5559C16.0181 14.7643 16.0181 15.1019 15.8099 15.3102C15.6015 15.5184 15.2638 15.5184 15.0556 15.3102L13.4556 13.7102C13.2474 13.502 13.2474 13.1643 13.4556 12.9559ZM8.78211 3.94601C9.23756 3.49054 9.41406 3.31742 9.57871 3.20557C10.3001 2.71549 11.2123 2.70589 11.89 3.15094C12.0439 3.252 12.2082 3.41238 12.6475 3.85172C13.0869 4.29106 13.2473 4.4554 13.3483 4.60928C13.7933 5.28697 13.7838 6.19913 13.2937 6.92056C13.1818 7.08521 13.0087 7.26171 12.5532 7.71716L11.8933 8.37711C11.6851 8.58539 11.6851 8.92307 11.8933 9.13135C12.1016 9.33962 12.4393 9.33962 12.6475 9.13135L13.3075 8.47139L13.3532 8.42563C13.7476 8.03147 13.9998 7.77923 14.176 7.51993C14.8963 6.45971 14.9334 5.07979 14.2399 4.02377C14.0708 3.76622 13.8243 3.51981 13.4494 3.1451L13.4018 3.09749L13.3542 3.04987C12.9795 2.67501 12.7331 2.4285 12.4755 2.25937C11.4195 1.56585 10.0396 1.60303 8.97933 2.32325C8.72004 2.4994 8.4678 2.75171 8.07365 3.14598L8.02788 3.19177L7.36792 3.85172C7.15964 4.06 7.15964 4.39768 7.36792 4.60595C7.5762 4.81423 7.91387 4.81423 8.12215 4.60595L8.78211 3.94601ZM3.69105 7.52861L3.64526 7.57437C3.25098 7.96853 2.99868 8.22077 2.82252 8.48006C2.1023 9.54028 2.06511 10.9202 2.75864 11.9762C2.92777 12.2338 3.17428 12.4802 3.54913 12.8549L3.59676 12.9025L3.64437 12.9501C4.01907 13.3249 4.26549 13.5715 4.52303 13.7406C5.57907 14.4341 6.95898 14.397 8.01921 13.6767C8.2785 13.5006 8.53074 13.2483 8.9249 12.854L8.97066 12.8082L9.63062 12.1483C9.8389 11.9399 9.8389 11.6023 9.63062 11.394C9.42234 11.1858 9.08466 11.1858 8.87639 11.394L8.21643 12.054C7.76098 12.5094 7.58447 12.6826 7.41982 12.7945C6.69839 13.2845 5.78623 13.2941 5.10855 12.8491C4.95467 12.7479 4.79033 12.5876 4.35099 12.1483C3.91165 11.7089 3.75127 11.5446 3.65021 11.3907C3.20516 10.7131 3.21476 9.80088 3.70484 9.07945C3.8167 8.91478 3.98982 8.73829 4.44527 8.28284L5.10522 7.62288C5.3135 7.4146 5.3135 7.07693 5.10522 6.86865C4.89695 6.66037 4.55927 6.66037 4.35099 6.86865L3.69105 7.52861Z" fill="#007C9F"/>
</g>
</svg>
