<svg width="14" height="14" viewBox="0 0 14 14" fill="none" xmlns="http://www.w3.org/2000/svg">
<path id="Vector" fill-rule="evenodd" clip-rule="evenodd" d="M0.0664062 9.13332C0.0664062 10.017 0.782748 10.7334 1.66641 10.7334H3.26641V9.66669H1.66641C1.37186 9.66669 1.13307 9.42787 1.13307 9.13332V1.66665C1.13307 1.3721 1.37186 1.13332 1.66641 1.13332H9.13307C9.42762 1.13332 9.66641 1.3721 9.66641 1.66665V3.26661H4.86641C3.98276 3.26661 3.26641 3.98295 3.26641 4.86661V12.3333C3.26641 13.2169 3.98276 13.9333 4.86641 13.9333H12.3331C13.2167 13.9333 13.9331 13.2169 13.9331 12.3333V4.86661C13.9331 3.98295 13.2167 3.26661 12.3331 3.26661H10.7331V1.66665C10.7331 0.782992 10.0167 0.0666504 9.13307 0.0666504H1.66641C0.782748 0.0666504 0.0664062 0.782992 0.0664062 1.66665V9.13332ZM4.33307 4.86661C4.33307 4.57206 4.57186 4.33327 4.86641 4.33327H12.3331C12.6276 4.33327 12.8664 4.57206 12.8664 4.86661V12.3333C12.8664 12.6279 12.6276 12.8666 12.3331 12.8666H4.86641C4.57186 12.8666 4.33307 12.6279 4.33307 12.3333V4.86661Z" fill="#60646C"/>
</svg>
