<svg width="16" height="16" viewBox="0 0 16 16" fill="none" xmlns="http://www.w3.org/2000/svg">
<g id="Abstract / plus-circled">
<rect width="16" height="16" fill="white" fill-opacity="0.01"/>
<path id="Vector" fill-rule="evenodd" clip-rule="evenodd" d="M7.99795 0.935303C4.09641 0.935303 0.933594 4.09813 0.933594 7.99965C0.933594 11.9012 4.09641 15.0641 7.99795 15.0641C11.8995 15.0641 15.0623 11.9012 15.0623 7.99965C15.0623 4.09813 11.8995 0.935303 7.99795 0.935303ZM1.94692 7.99965C1.94692 4.65778 4.65606 1.94863 7.99795 1.94863C11.3398 1.94863 14.0489 4.65778 14.0489 7.99965C14.0489 11.3415 11.3398 14.0507 7.99795 14.0507C4.65606 14.0507 1.94692 11.3415 1.94692 7.99965ZM7.99808 4.26662C8.29263 4.26662 8.53141 4.5054 8.53141 4.79995V7.46662H11.198C11.4927 7.46662 11.7314 7.7054 11.7314 7.99995C11.7314 8.2945 11.4927 8.53328 11.198 8.53328H8.53141V11.2C8.53141 11.4945 8.29263 11.7333 7.99808 11.7333C7.70353 11.7333 7.46475 11.4945 7.46475 11.2V8.53328H4.79808C4.50353 8.53328 4.26475 8.2945 4.26475 7.99995C4.26475 7.7054 4.50353 7.46662 4.79808 7.46662H7.46475V4.79995C7.46475 4.5054 7.70353 4.26662 7.99808 4.26662Z" fill="white"/>
</g>
</svg>
