<svg width="12" height="12" viewBox="0 0 12 12" fill="none" xmlns="http://www.w3.org/2000/svg">
<g id="Components / radiobutton">
<rect width="12" height="12" fill="white" fill-opacity="0.01"/>
<path id="Vector" fill-rule="evenodd" clip-rule="evenodd" d="M5.99944 0.70166C3.07329 0.70166 0.701172 3.07378 0.701172 5.99993C0.701172 8.92602 3.07329 11.2982 5.99944 11.2982C8.92556 11.2982 11.2977 8.92602 11.2977 5.99993C11.2977 3.07378 8.92556 0.70166 5.99944 0.70166ZM1.46117 5.99993C1.46117 3.49351 3.49302 1.46166 5.99944 1.46166C8.5058 1.46166 10.5377 3.49351 10.5377 5.99993C10.5377 8.50634 8.5058 10.5382 5.99944 10.5382C3.49302 10.5382 1.46117 8.50634 1.46117 5.99993ZM5.99955 7.60002C6.88321 7.60002 7.59955 6.88367 7.59955 6.00002C7.59955 5.11636 6.88321 4.40002 5.99955 4.40002C5.1159 4.40002 4.39955 5.11636 4.39955 6.00002C4.39955 6.88367 5.1159 7.60002 5.99955 7.60002Z" fill="#CC4E00" fill-opacity="0.773"/>
</g>
</svg>
