<svg width="19" height="18" viewBox="0 0 19 18" fill="none" xmlns="http://www.w3.org/2000/svg">
<rect width="18" height="18" transform="translate(0.550049)" fill="white" fill-opacity="0.01"/>
<path fill-rule="evenodd" clip-rule="evenodd" d="M9.93185 1.41829C9.72096 1.20741 9.37906 1.20741 9.16817 1.41829L5.56817 5.01829C5.35728 5.22918 5.35728 5.57108 5.56817 5.78197C5.77906 5.99285 6.12096 5.99285 6.33185 5.78197L9.01001 3.10381V11.4C9.01001 11.6982 9.25178 11.94 9.55001 11.94C9.84825 11.94 10.09 11.6982 10.09 11.4V3.10381L12.7682 5.78197C12.9791 5.99285 13.321 5.99285 13.5318 5.78197C13.7428 5.57108 13.7428 5.22918 13.5318 5.01829L9.93185 1.41829ZM3.54995 12C3.88132 12 4.14995 12.2686 4.14995 12.6V14.4C4.14995 15.0646 4.68473 15.6 5.34557 15.6H13.7514C14.4134 15.6 14.95 15.0634 14.95 14.4V12.6C14.95 12.2686 15.2186 12 15.55 12C15.8813 12 16.15 12.2686 16.15 12.6V14.4C16.15 15.7248 15.0774 16.8 13.7514 16.8H5.34557C4.01818 16.8 2.94995 15.7236 2.94995 14.4V12.6C2.94995 12.2686 3.21858 12 3.54995 12Z" fill="#007C9F"/>
</svg>
